<svg version="1.2" xmlns="http://www.w3.org/2000/svg" viewBox="0 0 256 256" width="256" height="256"><style>.a{stroke:#fff;paint-order:stroke fill markers;stroke-linejoin:round;stroke-width:8}</style><path class="a" d="m102 10.3c-4.7 1.2-9.5 2.8-10.7 3.5-1.2 0.7-3.3 1.2-4.7 1.2-1.4 0-2.7 0.4-3.1 0.9-0.3 0.5-3 2.1-5.9 3.4-5.4 2.5-15.4 9.8-16.8 12.2-0.5 0.7-1.7 1.1-2.8 0.8-1.3-0.4-2 0-2 0.9 0 2-2.9 4.4-6.2 5.2-1.6 0.3-2.8 1.1-2.8 1.6 0 0.5-1.5 1.7-3.2 2.6-4.2 2.1-6.9 5-8.9 9.4-0.9 2-2.9 5.6-4.5 8.1-1.5 2.4-3.7 6.2-4.8 8.4-1 2.2-2.9 5.6-4.2 7.6-1.4 1.9-3.1 5.8-3.8 8.5-0.8 2.7-2.4 8-3.6 11.9-2.5 7.7-2.8 10.7-3.6 34-0.9 25.8 1.3 35.5 11.3 50.4 1.3 1.9 2.3 4.2 2.3 5.1 0 1 0.7 2.3 1.5 3 0.8 0.7 2.4 3.1 3.4 5.4 2.5 5.3 7 10 11.8 12.5 4.1 2 5.8 4.5 6.8 9.8 0.9 4.4 6.9 9.2 22.4 17.9 2.1 1.1 5.7 2.8 8.2 3.6 2.4 0.9 6.2 2.3 8.4 3.2 2.2 0.8 5.9 1.5 8.1 1.6 2.5 0 5.1 0.8 6.6 1.9 6 4.7 20.9 5.6 37.3 2.3 6.1-1.3 14.2-2.7 18-3.3 3.9-0.5 7.9-1.4 9-1.9 1.1-0.5 6-2.1 10.8-3.5 9.2-2.8 12.6-4.4 21.3-10.5 6.6-4.5 19.9-17 23.2-21.8 11.4-16.5 14.8-23.2 13.2-26.2-0.8-1.6-0.4-3.6 2.1-9.5 1.7-4.1 3.4-7.7 3.9-8 0.4-0.3 1.7-2.3 2.9-4.5 1.8-3.4 2.1-5.8 2.1-15.8 0-6.4 0.4-13.4 0.9-15.5 1-4.2 0.4-6.8-4.1-16.5-2.2-4.8-2.6-6.7-1.8-8.2 0.5-1 1-2.8 1-4 0-2.2-4.1-10.2-6.6-13.1-0.8-0.8-1.4-3-1.4-4.7 0-2.1-0.7-3.5-2-4.2-1.1-0.6-2-1.9-2-3 0-1.1-0.9-2.4-1.9-3-2.2-1.1-3.7-6-3.2-10.8 0.3-3.7-1.2-6.4-7.3-13-7.9-8.6-26-21.7-36.1-26.1-2.7-1.2-5.9-2.6-7-3.1-10.4-4.9-24.8-7.2-53-8.5-8.2-0.4-11.5 0-18.5 1.8zm42 5.9c0 0.4-1.1 0.8-2.5 0.8-1.8 0-2.5-0.5-2.5-1.8 0-1 0.3-2.2 0.7-2.5 0.7-0.8 4.3 2.1 4.3 3.5zm2.1 5.9c0.9 0.5 3.8 1.3 6.5 1.9 13.5 3 34 13 42 20.5l3.8 3.6-10.5 10.6c-5.7 5.9-13.7 14.1-17.8 18.2-15.7 16.1-21.1 22.1-21.1 23.5 0 0.9 1.1 1.8 2.5 2.2 1.4 0.3 2.5 1.2 2.5 2 0 1.9-2.4 1.8-4-0.1-2-2.4-5.4-1.8-8.8 1.6-5.4 5.3-6.6 4-7.2-8.1-0.3-5.8-0.2-11.5 0.2-12.8 0.4-1.2 0.6-16 0.3-32.9-0.3-23.2-0.1-30.9 0.8-31.5 1.3-0.9 8.3-0.1 10.8 1.3zm-26.5-0.3c0.8 0.5 1.2 7.1 1.4 20.7 0.1 11 0.3 24.9 0.5 31 0.1 6 0.3 11.9 0.3 13 0 1.1-0.2 6.8-0.4 12.7-0.4 8.6-0.8 10.8-2 10.8-1.7 0-57.3-55.6-59.3-59.4-1.4-2.5-1.3-2.8 2.5-6.4 8.3-8.1 27.2-18.6 35.3-19.7 2-0.3 5.4-1 7.6-1.5 2.2-0.5 5.6-1.1 7.5-1.3 1.9-0.2 4-0.4 4.5-0.5 0.6-0.1 1.5 0.2 2.1 0.6zm93.9 42.3c7.7 9.8 9.4 12.4 9.5 14.2 0 1.7 2.4 7.1 5.5 12.7 0.8 1.4 1.5 3.4 1.5 4.5 0 1.1 0.7 4.2 1.5 6.9 2.2 7.2 1.1 13.9-2.7 17.1l-3 2.5h-39.3c-23.9 0-39.6-0.4-40-1-0.3-0.5 1-3.1 3-5.8 1.9-2.7 3.5-5.7 3.5-6.6 0-0.9 0.8-1.6 2-1.6 1.1 0 2-0.4 2-1 0-0.5 1.5-1.6 3.3-2.5 1.7-0.8 12.9-11.2 24.7-23 11.8-11.8 22.2-21.5 23-21.5 0.9 0 3.4 2.3 5.5 5.1zm-160.4-0.9c2.4 1.7 6.4 5.1 8.8 7.5 2.4 2.4 4.7 4.3 5.1 4.3 1.2 0 4.4 3.3 6.4 6.5 2.4 3.7 3.7 5.2 21.4 23.2 7.8 8.1 14.1 15.1 13.9 15.7-0.5 1.6-14.1 2.5-30.2 2.1-34.4-0.8-54.1-1.8-55.3-2.8-0.6-0.5-1.2-2.9-1.2-5.2 0-5 6.2-25.8 9.7-33 3.2-6.2 14.4-21.5 15.9-21.5 0.6 0 3.1 1.4 5.5 3.2zm55.5 72c1.4 1.4 0.8 2.4-6.3 10.1-11.3 12.4-13.7 15.7-13.5 18.1 0.1 1.3-0.9 2.7-2.6 3.8-1.5 1-3.4 2.2-4.2 2.8-0.8 0.5-2.7 1.4-4.2 2-1.5 0.5-4 2.7-5.5 4.8-1.6 2.2-4.8 5-7.2 6.3-2.5 1.3-6 4.1-8 6.2-4.2 4.6-6.9 5.4-10.9 3.3-2.8-1.4-9.1-8.8-14.8-17.2-3.8-5.5-7.6-16.5-9-25.8-2.1-14.1-3.9-13.1 27.3-14 14.2-0.5 30.5-1.1 36.3-1.6 14.2-1 20.8-0.7 22.6 1.2zm123.3 0.5c2.9 2.5 4.2 9.2 2.5 13.3-0.8 1.8-1.4 4.1-1.4 5.2 0 1.1-0.6 3.2-1.4 4.6-0.8 1.5-2.6 5.7-4.1 9.4-4.6 12.2-12.5 25-17.5 28.5-1.8 1.3-2.6 0.8-9.7-5.9-10.2-9.6-32.1-31.6-33.7-34-0.7-1-4.7-5.4-9-9.9-4.2-4.5-7.5-8.2-7.4-8.4 0.2-0.1 2.3-0.8 4.8-1.5 3.3-1.1 13.2-1.6 36.5-2 17.6-0.3 33.4-0.7 35.1-0.8 1.8-0.1 4.1 0.6 5.3 1.5zm-110.5 33.1c0.3 11.4 0.5 21.4 0.5 22.2 0 0.8 0 9.5 0.1 19.2 0.2 19.4-0.3 23.3-3 24.8-2 1.1-17.7-0.5-19.5-2-0.5-0.4-2.8-1.1-5-1.5-2.2-0.4-5.1-1.3-6.5-2-1.4-0.7-4.6-1.5-7.3-1.8-2.6-0.4-6.2-1.4-8-2.3-3.9-2-14.7-12.9-14.7-14.8 0-1.9 4.3-6.8 16.2-18.5 8.8-8.8 17.8-19.7 17.8-21.6 0-1.3 5.2-5.7 8.4-7.1 1.7-0.7 6.4-4.6 10.5-8.7 4.1-4.2 7.9-7.3 8.6-7.1 0.9 0.4 1.4 6.1 1.9 21.2zm17.9-18.6c2.3 3.4 6 7.1 30.5 30.7 12.2 11.8 23.2 22.9 24.3 24.7 2.6 4.3 1.7 6.1-6.1 11.4-3.2 2.2-6.5 4.9-7.2 5.9-2.7 3.8-25.7 11.6-37.6 12.7-5.6 0.5-7 0.4-8.1-1-1.1-1.3-1.4-6.5-1.2-25.4 0.4-50.5 0.6-58.7 1.4-60 1.2-1.8 2.3-1.5 4 1z"/></svg>
